<mxfile host="Electron" agent="Mozilla/5.0 (Windows NT 10.0; Win64; x64) AppleWebKit/537.36 (KHTML, like Gecko) draw.io/28.1.2 Chrome/138.0.7204.243 Electron/37.4.0 Safari/537.36" version="28.1.2">
  <diagram name="Trang-1" id="rwP8ydJQs45o7u7qhA0p">
    <mxGraphModel dx="1883" dy="3" grid="1" gridSize="10" guides="1" tooltips="1" connect="1" arrows="1" fold="1" page="1" pageScale="1" pageWidth="850" pageHeight="1100" math="0" shadow="0">
      <root>
        <mxCell id="0" />
        <mxCell id="1" parent="0" />
        <mxCell id="bse7ncrDJX_6Tj4aNrIj-1" value="III.3 - Biểu đồ mức 1 chức năng xuất hàng:" style="text;html=1;align=center;verticalAlign=middle;resizable=0;points=[];autosize=1;strokeColor=none;fillColor=none;fontSize=11;" vertex="1" parent="1">
          <mxGeometry x="400" y="1215" width="230" height="30" as="geometry" />
        </mxCell>
        <mxCell id="bse7ncrDJX_6Tj4aNrIj-2" value="1.3.1" style="swimlane;childLayout=stackLayout;horizontal=1;startSize=40;horizontalStack=0;rounded=1;fontSize=11;fontStyle=0;strokeWidth=2;resizeParent=0;resizeLast=1;shadow=0;dashed=0;align=center;arcSize=4;whiteSpace=wrap;html=1;" vertex="1" parent="1">
          <mxGeometry x="715" y="1538" width="160" height="80" as="geometry">
            <mxRectangle x="515" y="-17" width="60" height="50" as="alternateBounds" />
          </mxGeometry>
        </mxCell>
        <mxCell id="bse7ncrDJX_6Tj4aNrIj-3" value="Lập phiếu xuất hàng" style="text;html=1;align=center;verticalAlign=middle;resizable=0;points=[];autosize=1;strokeColor=none;fillColor=none;fontSize=11;" vertex="1" parent="bse7ncrDJX_6Tj4aNrIj-2">
          <mxGeometry y="40" width="160" height="40" as="geometry" />
        </mxCell>
        <mxCell id="bse7ncrDJX_6Tj4aNrIj-4" value="1.3.2" style="swimlane;childLayout=stackLayout;horizontal=1;startSize=40;horizontalStack=0;rounded=1;fontSize=11;fontStyle=0;strokeWidth=2;resizeParent=0;resizeLast=1;shadow=0;dashed=0;align=center;arcSize=4;whiteSpace=wrap;html=1;" vertex="1" parent="1">
          <mxGeometry x="715" y="1638" width="160" height="80" as="geometry">
            <mxRectangle x="515" y="-17" width="60" height="50" as="alternateBounds" />
          </mxGeometry>
        </mxCell>
        <mxCell id="bse7ncrDJX_6Tj4aNrIj-5" value="In phiếu xuất hàng" style="text;html=1;align=center;verticalAlign=middle;resizable=0;points=[];autosize=1;strokeColor=none;fillColor=none;fontSize=11;" vertex="1" parent="bse7ncrDJX_6Tj4aNrIj-4">
          <mxGeometry y="40" width="160" height="40" as="geometry" />
        </mxCell>
        <mxCell id="bse7ncrDJX_6Tj4aNrIj-6" value="Nhân viên" style="rounded=0;whiteSpace=wrap;html=1;fontSize=11;" vertex="1" parent="1">
          <mxGeometry x="445" y="1638" width="120" height="60" as="geometry" />
        </mxCell>
        <mxCell id="bse7ncrDJX_6Tj4aNrIj-7" value="1.3.3" style="swimlane;childLayout=stackLayout;horizontal=1;startSize=30;horizontalStack=0;rounded=1;fontSize=11;fontStyle=0;strokeWidth=2;resizeParent=0;resizeLast=1;shadow=0;dashed=0;align=center;arcSize=4;whiteSpace=wrap;html=1;" vertex="1" parent="1">
          <mxGeometry x="715" y="1748" width="160" height="80" as="geometry">
            <mxRectangle x="515" y="-17" width="60" height="50" as="alternateBounds" />
          </mxGeometry>
        </mxCell>
        <mxCell id="bse7ncrDJX_6Tj4aNrIj-8" value="Xác nhận thông tin&amp;nbsp;&lt;div&gt;hàng xuất&lt;/div&gt;" style="text;html=1;align=center;verticalAlign=middle;resizable=0;points=[];autosize=1;strokeColor=none;fillColor=none;fontSize=11;" vertex="1" parent="bse7ncrDJX_6Tj4aNrIj-7">
          <mxGeometry y="30" width="160" height="50" as="geometry" />
        </mxCell>
        <mxCell id="bse7ncrDJX_6Tj4aNrIj-9" value="Kho hàng xuất ra" style="shape=partialRectangle;whiteSpace=wrap;html=1;left=0;right=0;fillColor=none;fontSize=11;" vertex="1" parent="1">
          <mxGeometry x="1070" y="1888" width="120" height="40" as="geometry" />
        </mxCell>
        <mxCell id="bse7ncrDJX_6Tj4aNrIj-10" value="Kho hàng tồn" style="shape=partialRectangle;whiteSpace=wrap;html=1;left=0;right=0;fillColor=none;fontSize=11;" vertex="1" parent="1">
          <mxGeometry x="1090" y="1458" width="120" height="40" as="geometry" />
        </mxCell>
        <mxCell id="bse7ncrDJX_6Tj4aNrIj-11" value="" style="endArrow=classic;html=1;rounded=0;exitX=0.5;exitY=0;exitDx=0;exitDy=0;entryX=0;entryY=0.25;entryDx=0;entryDy=0;fontSize=11;" edge="1" parent="1" source="bse7ncrDJX_6Tj4aNrIj-6" target="bse7ncrDJX_6Tj4aNrIj-2">
          <mxGeometry width="50" height="50" relative="1" as="geometry">
            <mxPoint x="890" y="1728" as="sourcePoint" />
            <mxPoint x="940" y="1678" as="targetPoint" />
            <Array as="points">
              <mxPoint x="505" y="1558" />
            </Array>
          </mxGeometry>
        </mxCell>
        <mxCell id="bse7ncrDJX_6Tj4aNrIj-12" value="1. yêu cầu lập phiếu&amp;nbsp;&lt;span style=&quot;background-color: transparent; color: light-dark(rgb(0, 0, 0), rgb(255, 255, 255));&quot;&gt;xuất hàng&lt;/span&gt;" style="text;html=1;align=center;verticalAlign=middle;resizable=0;points=[];autosize=1;strokeColor=none;fillColor=none;fontSize=11;" vertex="1" parent="1">
          <mxGeometry x="530" y="1532" width="170" height="30" as="geometry" />
        </mxCell>
        <mxCell id="bse7ncrDJX_6Tj4aNrIj-13" value="2. kiểm tra hàng trong kho&amp;nbsp;" style="text;html=1;align=center;verticalAlign=middle;resizable=0;points=[];autosize=1;strokeColor=none;fillColor=none;fontSize=11;" vertex="1" parent="1">
          <mxGeometry x="880" y="1445" width="150" height="30" as="geometry" />
        </mxCell>
        <mxCell id="bse7ncrDJX_6Tj4aNrIj-14" value="" style="endArrow=classic;html=1;rounded=0;exitX=0.5;exitY=0;exitDx=0;exitDy=0;entryX=0;entryY=0.25;entryDx=0;entryDy=0;fontSize=11;" edge="1" parent="1" source="bse7ncrDJX_6Tj4aNrIj-2" target="bse7ncrDJX_6Tj4aNrIj-10">
          <mxGeometry width="50" height="50" relative="1" as="geometry">
            <mxPoint x="920" y="1663" as="sourcePoint" />
            <mxPoint x="1100" y="1508" as="targetPoint" />
            <Array as="points">
              <mxPoint x="795" y="1468" />
            </Array>
          </mxGeometry>
        </mxCell>
        <mxCell id="bse7ncrDJX_6Tj4aNrIj-15" value="" style="endArrow=classic;html=1;rounded=0;exitX=0;exitY=0.75;exitDx=0;exitDy=0;entryX=0.603;entryY=0.014;entryDx=0;entryDy=0;entryPerimeter=0;fontSize=11;" edge="1" parent="1" source="bse7ncrDJX_6Tj4aNrIj-10" target="bse7ncrDJX_6Tj4aNrIj-2">
          <mxGeometry width="50" height="50" relative="1" as="geometry">
            <mxPoint x="920" y="1588" as="sourcePoint" />
            <mxPoint x="970" y="1538" as="targetPoint" />
            <Array as="points">
              <mxPoint x="811" y="1488" />
            </Array>
          </mxGeometry>
        </mxCell>
        <mxCell id="bse7ncrDJX_6Tj4aNrIj-16" value="3. trả về tình trạng hàng trong kho" style="text;html=1;align=center;verticalAlign=middle;resizable=0;points=[];autosize=1;strokeColor=none;fillColor=none;fontSize=11;" vertex="1" parent="1">
          <mxGeometry x="862" y="1486" width="190" height="30" as="geometry" />
        </mxCell>
        <mxCell id="bse7ncrDJX_6Tj4aNrIj-17" value="TT phiếu xuất hàng" style="shape=partialRectangle;whiteSpace=wrap;html=1;left=0;right=0;fillColor=none;fontSize=11;" vertex="1" parent="1">
          <mxGeometry x="1090" y="1558" width="170" height="40" as="geometry" />
        </mxCell>
        <mxCell id="bse7ncrDJX_6Tj4aNrIj-18" value="" style="endArrow=classic;html=1;rounded=0;entryX=0;entryY=0.25;entryDx=0;entryDy=0;exitX=0.993;exitY=0.377;exitDx=0;exitDy=0;exitPerimeter=0;fontSize=11;" edge="1" parent="1" source="bse7ncrDJX_6Tj4aNrIj-2" target="bse7ncrDJX_6Tj4aNrIj-17">
          <mxGeometry width="50" height="50" relative="1" as="geometry">
            <mxPoint x="840" y="1758" as="sourcePoint" />
            <mxPoint x="890" y="1708" as="targetPoint" />
          </mxGeometry>
        </mxCell>
        <mxCell id="bse7ncrDJX_6Tj4aNrIj-19" value="6. lập phiếu xuất" style="text;html=1;align=center;verticalAlign=middle;resizable=0;points=[];autosize=1;strokeColor=none;fillColor=none;fontSize=11;" vertex="1" parent="1">
          <mxGeometry x="930" y="1538" width="100" height="30" as="geometry" />
        </mxCell>
        <mxCell id="bse7ncrDJX_6Tj4aNrIj-20" value="" style="endArrow=classic;html=1;rounded=0;entryX=1.007;entryY=0.21;entryDx=0;entryDy=0;exitX=0.008;exitY=0.7;exitDx=0;exitDy=0;entryPerimeter=0;exitPerimeter=0;fontSize=11;" edge="1" parent="1" source="bse7ncrDJX_6Tj4aNrIj-17" target="bse7ncrDJX_6Tj4aNrIj-3">
          <mxGeometry width="50" height="50" relative="1" as="geometry">
            <mxPoint x="1070" y="1588" as="sourcePoint" />
            <mxPoint x="1286" y="1588" as="targetPoint" />
          </mxGeometry>
        </mxCell>
        <mxCell id="bse7ncrDJX_6Tj4aNrIj-21" value="7. trả về thông tin phiếu xuất" style="text;html=1;align=center;verticalAlign=middle;resizable=0;points=[];autosize=1;strokeColor=none;fillColor=none;fontSize=11;" vertex="1" parent="1">
          <mxGeometry x="900" y="1586" width="160" height="30" as="geometry" />
        </mxCell>
        <mxCell id="bse7ncrDJX_6Tj4aNrIj-22" value="" style="endArrow=classic;html=1;rounded=0;entryX=0.75;entryY=0;entryDx=0;entryDy=0;fontSize=11;" edge="1" parent="1" source="bse7ncrDJX_6Tj4aNrIj-2" target="bse7ncrDJX_6Tj4aNrIj-6">
          <mxGeometry width="50" height="50" relative="1" as="geometry">
            <mxPoint x="910" y="1688" as="sourcePoint" />
            <mxPoint x="960" y="1638" as="targetPoint" />
            <Array as="points">
              <mxPoint x="535" y="1578" />
            </Array>
          </mxGeometry>
        </mxCell>
        <mxCell id="bse7ncrDJX_6Tj4aNrIj-23" value="6. kết quả yêu cầu" style="text;html=1;align=center;verticalAlign=middle;resizable=0;points=[];autosize=1;strokeColor=none;fillColor=none;fontSize=11;" vertex="1" parent="1">
          <mxGeometry x="558" y="1575" width="110" height="30" as="geometry" />
        </mxCell>
        <mxCell id="bse7ncrDJX_6Tj4aNrIj-24" value="" style="endArrow=classic;html=1;rounded=0;exitX=1.002;exitY=0.335;exitDx=0;exitDy=0;exitPerimeter=0;entryX=0;entryY=0.25;entryDx=0;entryDy=0;fontSize=11;" edge="1" parent="1" source="bse7ncrDJX_6Tj4aNrIj-6" target="bse7ncrDJX_6Tj4aNrIj-4">
          <mxGeometry width="50" height="50" relative="1" as="geometry">
            <mxPoint x="790" y="1768" as="sourcePoint" />
            <mxPoint x="710" y="1658" as="targetPoint" />
          </mxGeometry>
        </mxCell>
        <mxCell id="bse7ncrDJX_6Tj4aNrIj-25" value="8. yêu cầu in phiếu xuất" style="text;html=1;align=center;verticalAlign=middle;resizable=0;points=[];autosize=1;strokeColor=none;fillColor=none;fontSize=11;" vertex="1" parent="1">
          <mxGeometry x="569" y="1636" width="140" height="30" as="geometry" />
        </mxCell>
        <mxCell id="bse7ncrDJX_6Tj4aNrIj-26" value="" style="endArrow=classic;html=1;rounded=0;exitX=1;exitY=0.25;exitDx=0;exitDy=0;entryX=0.176;entryY=1;entryDx=0;entryDy=0;entryPerimeter=0;fontSize=11;" edge="1" parent="1">
          <mxGeometry width="50" height="50" relative="1" as="geometry">
            <mxPoint x="875" y="1659" as="sourcePoint" />
            <mxPoint x="1119.9199999999996" y="1599" as="targetPoint" />
            <Array as="points">
              <mxPoint x="1120" y="1659" />
            </Array>
          </mxGeometry>
        </mxCell>
        <mxCell id="bse7ncrDJX_6Tj4aNrIj-27" value="9. in phiếu xuất hàng" style="text;html=1;align=center;verticalAlign=middle;resizable=0;points=[];autosize=1;strokeColor=none;fillColor=none;fontSize=11;" vertex="1" parent="1">
          <mxGeometry x="932" y="1633" width="130" height="30" as="geometry" />
        </mxCell>
        <mxCell id="bse7ncrDJX_6Tj4aNrIj-28" value="" style="endArrow=classic;html=1;rounded=0;entryX=1.001;entryY=0.007;entryDx=0;entryDy=0;entryPerimeter=0;fontSize=11;" edge="1" parent="1" target="bse7ncrDJX_6Tj4aNrIj-5">
          <mxGeometry width="50" height="50" relative="1" as="geometry">
            <mxPoint x="1150" y="1598" as="sourcePoint" />
            <mxPoint x="1030" y="1618" as="targetPoint" />
            <Array as="points">
              <mxPoint x="1150" y="1678" />
            </Array>
          </mxGeometry>
        </mxCell>
        <mxCell id="bse7ncrDJX_6Tj4aNrIj-29" value="10. trả về phiếu in xuất hàng" style="text;html=1;align=center;verticalAlign=middle;resizable=0;points=[];autosize=1;strokeColor=none;fillColor=none;fontSize=11;" vertex="1" parent="1">
          <mxGeometry x="920" y="1678" width="160" height="30" as="geometry" />
        </mxCell>
        <mxCell id="bse7ncrDJX_6Tj4aNrIj-30" value="" style="endArrow=classic;html=1;rounded=0;entryX=1;entryY=0.75;entryDx=0;entryDy=0;exitX=0.001;exitY=0.114;exitDx=0;exitDy=0;exitPerimeter=0;fontSize=11;" edge="1" parent="1" source="bse7ncrDJX_6Tj4aNrIj-5" target="bse7ncrDJX_6Tj4aNrIj-6">
          <mxGeometry width="50" height="50" relative="1" as="geometry">
            <mxPoint x="700" y="1688" as="sourcePoint" />
            <mxPoint x="750" y="1638" as="targetPoint" />
          </mxGeometry>
        </mxCell>
        <mxCell id="bse7ncrDJX_6Tj4aNrIj-31" value="11. in phiếu xuất" style="text;html=1;align=center;verticalAlign=middle;resizable=0;points=[];autosize=1;strokeColor=none;fillColor=none;fontSize=11;" vertex="1" parent="1">
          <mxGeometry x="580" y="1676" width="100" height="30" as="geometry" />
        </mxCell>
        <mxCell id="bse7ncrDJX_6Tj4aNrIj-32" value="" style="endArrow=classic;html=1;rounded=0;exitX=0.75;exitY=1;exitDx=0;exitDy=0;fontSize=11;edgeStyle=orthogonalEdgeStyle;entryX=0.992;entryY=0.838;entryDx=0;entryDy=0;entryPerimeter=0;" edge="1" parent="1" target="bse7ncrDJX_6Tj4aNrIj-33">
          <mxGeometry width="50" height="50" relative="1" as="geometry">
            <mxPoint x="526" y="1698" as="sourcePoint" />
            <mxPoint x="706.9599999999998" y="1784.9999999999995" as="targetPoint" />
            <Array as="points">
              <mxPoint x="526" y="1785" />
            </Array>
          </mxGeometry>
        </mxCell>
        <mxCell id="bse7ncrDJX_6Tj4aNrIj-33" value="12. yêu cầu xác nhận thông tin xuất" style="text;html=1;align=center;verticalAlign=middle;resizable=0;points=[];autosize=1;strokeColor=none;fillColor=none;fontSize=11;" vertex="1" parent="1">
          <mxGeometry x="516" y="1760" width="200" height="30" as="geometry" />
        </mxCell>
        <mxCell id="bse7ncrDJX_6Tj4aNrIj-34" value="" style="endArrow=classic;html=1;rounded=0;entryX=0.5;entryY=1;entryDx=0;entryDy=0;exitX=-0.005;exitY=0.54;exitDx=0;exitDy=0;exitPerimeter=0;fontSize=11;edgeStyle=orthogonalEdgeStyle;" edge="1" parent="1" source="bse7ncrDJX_6Tj4aNrIj-8" target="bse7ncrDJX_6Tj4aNrIj-6">
          <mxGeometry width="50" height="50" relative="1" as="geometry">
            <mxPoint x="700" y="1718" as="sourcePoint" />
            <mxPoint x="750" y="1668" as="targetPoint" />
          </mxGeometry>
        </mxCell>
        <mxCell id="bse7ncrDJX_6Tj4aNrIj-35" value="" style="endArrow=classic;html=1;rounded=0;exitX=1;exitY=0.25;exitDx=0;exitDy=0;entryX=0.529;entryY=1;entryDx=0;entryDy=0;entryPerimeter=0;fontSize=11;" edge="1" parent="1" source="bse7ncrDJX_6Tj4aNrIj-7" target="bse7ncrDJX_6Tj4aNrIj-17">
          <mxGeometry width="50" height="50" relative="1" as="geometry">
            <mxPoint x="875" y="1788" as="sourcePoint" />
            <mxPoint x="1120" y="1728" as="targetPoint" />
            <Array as="points">
              <mxPoint x="1180" y="1768" />
            </Array>
          </mxGeometry>
        </mxCell>
        <mxCell id="bse7ncrDJX_6Tj4aNrIj-36" value="13. kiểm tra thông tin phiếu xuất" style="text;html=1;align=center;verticalAlign=middle;resizable=0;points=[];autosize=1;strokeColor=none;fillColor=none;fontSize=11;" vertex="1" parent="1">
          <mxGeometry x="930" y="1741" width="180" height="30" as="geometry" />
        </mxCell>
        <mxCell id="bse7ncrDJX_6Tj4aNrIj-37" value="" style="endArrow=classic;html=1;rounded=0;entryX=1;entryY=0.5;entryDx=0;entryDy=0;exitX=0.653;exitY=1.061;exitDx=0;exitDy=0;exitPerimeter=0;fontSize=11;" edge="1" parent="1" source="bse7ncrDJX_6Tj4aNrIj-17" target="bse7ncrDJX_6Tj4aNrIj-7">
          <mxGeometry width="50" height="50" relative="1" as="geometry">
            <mxPoint x="1080" y="1728" as="sourcePoint" />
            <mxPoint x="1130" y="1678" as="targetPoint" />
            <Array as="points">
              <mxPoint x="1201" y="1788" />
            </Array>
          </mxGeometry>
        </mxCell>
        <mxCell id="bse7ncrDJX_6Tj4aNrIj-38" value="14. thông tin phiếu xuất hợp lệ" style="text;html=1;align=center;verticalAlign=middle;resizable=0;points=[];autosize=1;strokeColor=none;fillColor=none;fontSize=11;" vertex="1" parent="1">
          <mxGeometry x="940" y="1788" width="170" height="30" as="geometry" />
        </mxCell>
        <mxCell id="bse7ncrDJX_6Tj4aNrIj-39" value="" style="endArrow=classic;html=1;rounded=0;entryX=0.41;entryY=1.047;entryDx=0;entryDy=0;exitX=0;exitY=0.25;exitDx=0;exitDy=0;entryPerimeter=0;fontSize=11;" edge="1" parent="1" target="bse7ncrDJX_6Tj4aNrIj-8">
          <mxGeometry width="50" height="50" relative="1" as="geometry">
            <mxPoint x="1070" y="1917" as="sourcePoint" />
            <mxPoint x="781" y="1847" as="targetPoint" />
            <Array as="points">
              <mxPoint x="781" y="1917" />
            </Array>
          </mxGeometry>
        </mxCell>
        <mxCell id="bse7ncrDJX_6Tj4aNrIj-40" value="16. trả về kết quả xác nhận" style="text;html=1;align=center;verticalAlign=middle;resizable=0;points=[];autosize=1;strokeColor=none;fillColor=none;fontSize=11;" vertex="1" parent="1">
          <mxGeometry x="835" y="1918" width="160" height="30" as="geometry" />
        </mxCell>
        <mxCell id="bse7ncrDJX_6Tj4aNrIj-41" value="" style="endArrow=classic;html=1;rounded=0;fontSize=11;" edge="1" parent="1" source="bse7ncrDJX_6Tj4aNrIj-8">
          <mxGeometry width="50" height="50" relative="1" as="geometry">
            <mxPoint x="847" y="1818" as="sourcePoint" />
            <mxPoint x="1070" y="1898" as="targetPoint" />
            <Array as="points">
              <mxPoint x="795" y="1898" />
            </Array>
          </mxGeometry>
        </mxCell>
        <mxCell id="bse7ncrDJX_6Tj4aNrIj-42" value="&lt;font style=&quot;font-size: 10px;&quot;&gt;15. xác nhận thông tin hàng xuất từ phiếu xuất&lt;/font&gt;" style="text;html=1;align=center;verticalAlign=middle;resizable=0;points=[];autosize=1;strokeColor=none;fillColor=none;fontSize=11;" vertex="1" parent="1">
          <mxGeometry x="810" y="1870" width="230" height="30" as="geometry" />
        </mxCell>
        <mxCell id="bse7ncrDJX_6Tj4aNrIj-43" value="&lt;font style=&quot;font-size: 11px;&quot;&gt;17. cho phép xuất hàng&lt;/font&gt;" style="text;html=1;align=center;verticalAlign=middle;resizable=0;points=[];autosize=1;strokeColor=none;fillColor=none;" vertex="1" parent="1">
          <mxGeometry x="520" y="1798" width="140" height="30" as="geometry" />
        </mxCell>
        <mxCell id="bse7ncrDJX_6Tj4aNrIj-44" value="Danh mục" style="shape=partialRectangle;whiteSpace=wrap;html=1;left=0;right=0;fillColor=none;" vertex="1" parent="1">
          <mxGeometry x="695" y="1275" width="108" height="40" as="geometry" />
        </mxCell>
        <mxCell id="bse7ncrDJX_6Tj4aNrIj-45" value="" style="endArrow=classic;html=1;rounded=0;exitX=0.25;exitY=0;exitDx=0;exitDy=0;entryX=0.332;entryY=1.026;entryDx=0;entryDy=0;entryPerimeter=0;" edge="1" parent="1">
          <mxGeometry width="50" height="50" relative="1" as="geometry">
            <mxPoint x="737" y="1538" as="sourcePoint" />
            <mxPoint x="736.8399999999999" y="1316.04" as="targetPoint" />
          </mxGeometry>
        </mxCell>
        <mxCell id="bse7ncrDJX_6Tj4aNrIj-46" value="" style="endArrow=classic;html=1;rounded=0;exitX=0.5;exitY=1;exitDx=0;exitDy=0;" edge="1" parent="1">
          <mxGeometry width="50" height="50" relative="1" as="geometry">
            <mxPoint x="757" y="1315" as="sourcePoint" />
            <mxPoint x="757" y="1535" as="targetPoint" />
          </mxGeometry>
        </mxCell>
        <mxCell id="bse7ncrDJX_6Tj4aNrIj-47" value="4. kiểm tra danh mục hàng cần xuất" style="text;html=1;align=center;verticalAlign=middle;resizable=0;points=[];autosize=1;strokeColor=none;fillColor=none;rotation=-90;" vertex="1" parent="1">
          <mxGeometry x="617" y="1415" width="210" height="30" as="geometry" />
        </mxCell>
        <mxCell id="bse7ncrDJX_6Tj4aNrIj-48" value="5. trả về chi tiết danh mục hàng" style="text;html=1;align=center;verticalAlign=middle;resizable=0;points=[];autosize=1;strokeColor=none;fillColor=none;rotation=-90;" vertex="1" parent="1">
          <mxGeometry x="672" y="1405" width="190" height="30" as="geometry" />
        </mxCell>
        <mxCell id="bse7ncrDJX_6Tj4aNrIj-49" value="1.3.4" style="swimlane;childLayout=stackLayout;horizontal=1;startSize=30;horizontalStack=0;rounded=1;fontSize=11;fontStyle=0;strokeWidth=2;resizeParent=0;resizeLast=1;shadow=0;dashed=0;align=center;arcSize=4;whiteSpace=wrap;html=1;" vertex="1" parent="1">
          <mxGeometry x="720" y="1975" width="160" height="80" as="geometry">
            <mxRectangle x="515" y="-17" width="60" height="50" as="alternateBounds" />
          </mxGeometry>
        </mxCell>
        <mxCell id="bse7ncrDJX_6Tj4aNrIj-50" value="Xác nhận hàng được giao" style="text;html=1;align=center;verticalAlign=middle;resizable=0;points=[];autosize=1;strokeColor=none;fillColor=none;fontSize=11;" vertex="1" parent="bse7ncrDJX_6Tj4aNrIj-49">
          <mxGeometry y="30" width="160" height="50" as="geometry" />
        </mxCell>
        <mxCell id="bse7ncrDJX_6Tj4aNrIj-51" value="Khách hàng" style="rounded=0;whiteSpace=wrap;html=1;" vertex="1" parent="1">
          <mxGeometry x="1070" y="1985" width="120" height="60" as="geometry" />
        </mxCell>
        <mxCell id="bse7ncrDJX_6Tj4aNrIj-52" style="rounded=0;orthogonalLoop=1;jettySize=auto;html=1;exitX=1;exitY=0.25;exitDx=0;exitDy=0;entryX=-0.003;entryY=0.163;entryDx=0;entryDy=0;entryPerimeter=0;" edge="1" parent="1">
          <mxGeometry relative="1" as="geometry">
            <mxPoint x="880" y="2005.01" as="sourcePoint" />
            <mxPoint x="1069.6399999999999" y="2004.7899999999997" as="targetPoint" />
          </mxGeometry>
        </mxCell>
        <mxCell id="bse7ncrDJX_6Tj4aNrIj-53" style="rounded=0;orthogonalLoop=1;jettySize=auto;html=1;entryX=0.995;entryY=0.196;entryDx=0;entryDy=0;entryPerimeter=0;" edge="1" parent="1">
          <mxGeometry relative="1" as="geometry">
            <mxPoint x="1070" y="2024.9621531100481" as="sourcePoint" />
            <mxPoint x="879.2" y="2024.8100000000002" as="targetPoint" />
          </mxGeometry>
        </mxCell>
        <mxCell id="bse7ncrDJX_6Tj4aNrIj-54" value="" style="endArrow=classic;html=1;rounded=0;exitX=0.25;exitY=1;exitDx=0;exitDy=0;entryX=-0.003;entryY=0.211;entryDx=0;entryDy=0;entryPerimeter=0;edgeStyle=orthogonalEdgeStyle;" edge="1" parent="1" target="bse7ncrDJX_6Tj4aNrIj-49">
          <mxGeometry width="50" height="50" relative="1" as="geometry">
            <mxPoint x="481" y="1698" as="sourcePoint" />
            <mxPoint x="727.1200000000001" y="1991.4" as="targetPoint" />
            <Array as="points">
              <mxPoint x="481" y="1991" />
              <mxPoint x="701" y="1991" />
            </Array>
          </mxGeometry>
        </mxCell>
        <mxCell id="bse7ncrDJX_6Tj4aNrIj-55" value="" style="endArrow=classic;html=1;rounded=0;exitX=0.004;exitY=0.426;exitDx=0;exitDy=0;exitPerimeter=0;entryX=0.13;entryY=1.005;entryDx=0;entryDy=0;entryPerimeter=0;edgeStyle=orthogonalEdgeStyle;" edge="1" parent="1" source="bse7ncrDJX_6Tj4aNrIj-50" target="bse7ncrDJX_6Tj4aNrIj-6">
          <mxGeometry width="50" height="50" relative="1" as="geometry">
            <mxPoint x="665" y="1825" as="sourcePoint" />
            <mxPoint x="715" y="1775" as="targetPoint" />
          </mxGeometry>
        </mxCell>
        <mxCell id="bse7ncrDJX_6Tj4aNrIj-56" value="18. yêu cầu thông báo xuất hàng" style="text;html=1;align=center;verticalAlign=middle;resizable=0;points=[];autosize=1;strokeColor=none;fillColor=none;" vertex="1" parent="1">
          <mxGeometry x="489" y="1965" width="200" height="30" as="geometry" />
        </mxCell>
        <mxCell id="bse7ncrDJX_6Tj4aNrIj-57" value="19. thông báo xuất hàng" style="text;html=1;align=center;verticalAlign=middle;resizable=0;points=[];autosize=1;strokeColor=none;fillColor=none;" vertex="1" parent="1">
          <mxGeometry x="899" y="1980" width="150" height="30" as="geometry" />
        </mxCell>
        <mxCell id="bse7ncrDJX_6Tj4aNrIj-58" value="20. trả về kết quả thông báo" style="text;html=1;align=center;verticalAlign=middle;resizable=0;points=[];autosize=1;strokeColor=none;fillColor=none;" vertex="1" parent="1">
          <mxGeometry x="892" y="2019" width="170" height="30" as="geometry" />
        </mxCell>
        <mxCell id="bse7ncrDJX_6Tj4aNrIj-59" value="21. kết quả yêu cầu thông báo" style="text;html=1;align=center;verticalAlign=middle;resizable=0;points=[];autosize=1;strokeColor=none;fillColor=none;" vertex="1" parent="1">
          <mxGeometry x="499" y="2021" width="180" height="30" as="geometry" />
        </mxCell>
      </root>
    </mxGraphModel>
  </diagram>
</mxfile>
